<?xml version="1.0" encoding="UTF-8" standalone="no"?>
<svg
   xmlns:dc="http://purl.org/dc/elements/1.1/"
   xmlns:cc="http://creativecommons.org/ns#"
   xmlns:rdf="http://www.w3.org/1999/02/22-rdf-syntax-ns#"
   xmlns:svg="http://www.w3.org/2000/svg"
   xmlns="http://www.w3.org/2000/svg"
   xmlns:sodipodi="http://sodipodi.sourceforge.net/DTD/sodipodi-0.dtd"
   xmlns:inkscape="http://www.inkscape.org/namespaces/inkscape"
   width="579pt"
   height="414pt"
   viewBox="0 0 579 414"
   version="1.1"
   id="svg3336"
   inkscape:version="0.91 r13725"
   sodipodi:docname="cours_central.svg"
   inkscape:export-filename="C:\Program Files\wamp\www\Systeme_de_billeterie\Web\Files\images\cours_central_svg.png"
   inkscape:export-xdpi="90"
   inkscape:export-ydpi="90">
  <metadata
     id="metadata4006">
    <rdf:RDF>
      <cc:Work
         rdf:about="">
        <dc:format>image/svg+xml</dc:format>
        <dc:type
           rdf:resource="http://purl.org/dc/dcmitype/StillImage" />
        <dc:title></dc:title>
      </cc:Work>
    </rdf:RDF>
  </metadata>
  <defs
     id="defs4004" />
  <sodipodi:namedview
     pagecolor="#ffffff"
     bordercolor="#666666"
     borderopacity="1"
     objecttolerance="10"
     gridtolerance="10"
     guidetolerance="10"
     inkscape:pageopacity="0"
     inkscape:pageshadow="2"
     inkscape:window-width="1920"
     inkscape:window-height="1013"
     id="namedview4002"
     showgrid="false"
     inkscape:snap-text-baseline="true"
     inkscape:zoom="1.4142136"
     inkscape:cx="235.78712"
     inkscape:cy="216.64456"
     inkscape:window-x="-9"
     inkscape:window-y="-9"
     inkscape:window-maximized="1"
     inkscape:current-layer="g4282" />
  <flowRoot
     xml:space="preserve"
     id="flowRoot4008"
     style="font-style:normal;font-weight:normal;font-size:40px;line-height:125%;font-family:sans-serif;letter-spacing:0px;word-spacing:0px;fill:#000000;fill-opacity:1;stroke:none;stroke-width:1px;stroke-linecap:butt;stroke-linejoin:miter;stroke-opacity:1"
     transform="scale(0.8,0.8)"><flowRegion
       id="flowRegion4010"><rect
         id="rect4012"
         width="148.93903"
         height="41.652439"
         x="294.09146"
         y="297.24695" /></flowRegion><flowPara
       id="flowPara4014">RE</flowPara></flowRoot>  <text
     xml:space="preserve"
     style="font-style:normal;font-weight:normal;font-size:32px;line-height:125%;font-family:sans-serif;letter-spacing:0px;word-spacing:0px;fill:#000000;fill-opacity:1;stroke:none;stroke-width:1px;stroke-linecap:butt;stroke-linejoin:miter;stroke-opacity:1"
     x="238.80733"
     y="255.97318"
     id="text4016"
     sodipodi:linespacing="125%"><tspan
       sodipodi:role="line"
       id="tspan4018"
       x="238.80733"
       y="255.97318" /></text>
  <flowRoot
     xml:space="preserve"
     id="flowRoot4020"
     style="fill:black;stroke:none;stroke-opacity:1;stroke-width:1px;stroke-linejoin:miter;stroke-linecap:butt;fill-opacity:1;font-family:sans-serif;font-style:normal;font-weight:normal;font-size:40px;line-height:125%;letter-spacing:0px;word-spacing:0px"><flowRegion
       id="flowRegion4022"><rect
         id="rect4024"
         width="181.125"
         height="53.643291"
         x="287.14938"
         y="294.09146" /></flowRegion><flowPara
       id="flowPara4026" /></flowRoot>  <flowRoot
     xml:space="preserve"
     id="flowRoot4161"
     style="fill:black;stroke:none;stroke-opacity:1;stroke-width:1px;stroke-linejoin:miter;stroke-linecap:butt;fill-opacity:1;font-family:sans-serif;font-style:normal;font-weight:normal;font-size:40px;line-height:125%;letter-spacing:0px;word-spacing:0px"><flowRegion
       id="flowRegion4163"><rect
         id="rect4165"
         width="80.325607"
         height="66.045502"
         x="627.43225"
         y="189.05753" /></flowRegion><flowPara
       id="flowPara4167" /></flowRoot>  <g
     id="g4282">
    <path
       sodipodi:nodetypes="ccsc"
       style="fill:#020202"
       inkscape:connector-curvature="0"
       id="path3340"
       d="m 165.83837,40.547003 c 2.99,-0.22 8.33283,-0.877817 11.31283,-1.277817 4.70749,0.667781 -0.0881,0.507502 -0.56388,0.632607 -3.9566,1.040325 -12.29453,1.511505 -10.74895,0.64521 z" />
    <path
       sodipodi:nodetypes="ccccccccccccccccccsccccccccccccccccccccccccccccccccccc"
       style="fill:#777777"
       inkscape:connector-curvature="0"
       id="path3342"
       d="m 175.77897,39.960879 c 1.29904,-0.140408 1.27654,-0.108845 1.71654,-0.158845 l 0.82721,0.04871 c 0.87,0.48 1.66728,0.809251 2.65728,0.839251 73.36,-0.02 146.72,0.06 220.07,-0.03 0.95,-0.02 1.86,-0.26 2.71,-0.71 l 1.25,-0.61 c 12.66449,-0.21483 29.65142,4.17114 38.1,7.48 6.3,2.79 11.37749,3.997868 17.19749,6.577868 2.44633,0.04611 6.33658,2.792854 7.65677,4.406777 -0.39,1.91 -1.38426,3.835355 -1.48426,5.805355 0.0162,0.144684 -0.13321,0.219792 -0.2,0.33 -3.26,4.07 -4.03,9.5 -6.25,14.13 -15.67,-8.32 -32.93,-13.13 -50.43,-15.6 -3.1,-2.07 -6.87,-1.82 -10.23,-0.61 -28.11,0.8 -56.26,0.28 -84.39,0.46 -44.3,-0.09 -88.6,0.12 -132.9,-0.21 -2.64,-0.08 -5.29,0.02 -7.9,0.48 4.20095,0.276438 8.41012,0.294111 12.62191,0.252185 5.08214,-0.05059 10.1681,-0.187954 15.24809,-0.06218 0.07,6.76 0.14,13.51 -0.11,20.27 -5.97,0.12 -11.94,-0.04 -17.91,0 -18.01,0.55 -35.79,5.29 -51.87,13.35 -2.86,-6.13 -5.94,-12.16 -8.66,-18.36 15.55,-7.92 32.57,-12.89 49.92,-14.71 -2.14,-0.24 -4.31,-0.34 -6.45,-0.03 -28.54,4.31 -55.79,17.26 -76.89,36.99999 -29.24,26.78 -46.59,66.09 -46.33,105.77 -0.37,32.72 11.07,65.4 31.59,90.87 17.37,21.74 41.11,38.37 67.57,47.04 15.16,4.99 31.15,7.51 47.12,7.27 62.65,-0.01 125.3,-0.02 187.95,0 11.67,-0.11 23.43,0.54 35,-1.34 16.41,-2.09 32.23,-7.48 47.03,-14.77 3.81436,6.76759 4.67223,12.90123 7.83716,20.33072 -22.86707,12.35895 -42.35607,17.23327 -68.82716,17.83929 -71.98,-0.01 -143.97,-0.03 -215.95,0.01 C 58.519685,364.98896 -25.653937,230.94858 48.98,115.05 l -0.67,-0.47 -0.23,-0.16 0.58,-0.37 c 2.48,-1.3 3.66,-3.96 5.3,-6.08 19.98,-27.41 48.57,-48.27 80.57,-59.41 l 0.64,-0.83 c 0.06,-0.08 0.80475,-0.23 0.86475,-0.31 3.50551,-0.819509 5.12525,-1.375504 7.90525,-2.165504 3.1,-0.96 15.72137,-3.327339 9.41,-1.914496 0.25,-0.2 0.74,-0.59 0.98,-0.79 l 0.1,-0.08 c 2.18,0.08 4.37,0 6.51,-0.42 2.73501,-0.890518 3.23191,-1.592209 4.20041,-1.040193 0.24,-0.35 0.4834,0.131414 0.7334,-0.21859 l 0.77897,-0.143814 c 3.13272,0.379186 6.12306,-0.02326 9.12619,-0.686524 z" />
    <path
       style="fill:#272727"
       inkscape:connector-curvature="0"
       id="path3344"
       d="m 176.96,39.3 c 3.33,-0.44 6.68,-0.31 10.03,-0.31 C 244.97,39 302.95,39 360.94,39 c 14.68,0.19 29.41,-0.42 44.07,0.34 l -1.25,0.61 c -31.25,0.49 -62.52,0.08 -93.77,0.23 C 272,40.16 234.02,40.15 196.03,40.17 190.09,40.14 184.14,40.32 178.2,39.94 l -1.24,-0.64 z" />
    <path
       sodipodi:nodetypes="ccccc"
       style="fill:#020202"
       inkscape:connector-curvature="0"
       id="path3348"
       d="m 153.62674,42.737752 c 3.8,-1 8.52326,-1.667752 12.40326,-2.247752 2.4833,0.160342 3.14356,-0.06448 2.90356,0.285523 -1.37,-0.33 -6.63356,0.824477 -7.99356,1.274477 -2.14,0.42 -5.13326,0.767752 -7.31326,0.687752 z" />
    <path
       inkscape:connector-curvature="0"
       style="fill:#777777;fill-opacity:1"
       id="path3350"
       d="m 178.2,39.94 c 5.94,0.38 11.89,0.2 17.83,0.23 37.99,-0.02 75.97,-0.01 113.96,0.01 31.25,-0.15 62.52,0.26 93.77,-0.23 -0.85,0.45 -1.76,0.69 -2.71,0.71 -73.35,0.09 -146.71,0.01 -220.07,0.03 -0.99,-0.03 -1.91,-0.27 -2.78,-0.75 z" />
    <path
       sodipodi:nodetypes="ccccc"
       style="fill:#020202"
       inkscape:connector-curvature="0"
       id="path3356"
       d="m 132.01847,48.75876 c 7.08326,-2.513256 17.9243,-5.694264 24.3643,-6.744264 -0.24,0.2 -0.64075,0.500749 -0.89075,0.700749 -3.1,0.94 -8.45202,2.114755 -11.55202,3.074755 -7.68879,1.771757 -8.95153,3.39876 -11.92153,2.96876 z" />
    <path
       style="fill:#020202"
       inkscape:connector-curvature="0"
       id="path3368"
       d="m 439.67299,45.30934 c 6.55,1.9 16.36483,5.561371 22.32663,8.519569 -0.37,0.05 -1.56962,-0.258909 -1.93962,-0.218909 -5.82,-2.58 -14.88701,-5.06066 -20.38701,-8.30066 z"
       sodipodi:nodetypes="cccc" />
    <path
       style="fill:#020202"
       inkscape:connector-curvature="0"
       id="path3372"
       d="M 48.66,114.05 C 69.17,83.27 99.92,59.18 135.17,47.73 l -0.64,0.83 c -32,11.14 -60.59,32 -80.57,59.41 -1.64,2.12 -2.82,4.78 -5.3,6.08 z" />
    <path
       style="fill:#020202"
       inkscape:connector-curvature="0"
       id="path3412"
       d="m 457.07025,51.592614 c 2.4,0.95 9.65975,4.357386 11.95975,5.547386 -0.82,2.17 -3.02492,7.880179 -4.03492,9.970179 0.1,-1.97 2.40241,-7.360179 2.79241,-9.270179 -2.0164,-2.224264 -9.32724,-4.327386 -10.71724,-6.247386 z"
       sodipodi:nodetypes="ccccc" />
    <path
       inkscape:connector-curvature="0"
       style="fill:#777777;fill-opacity:1"
       id="path3414"
       d="m 399.37,61.86 c 3.36,-1.21 7.13,-1.46 10.23,0.61 -3.41,-0.22 -6.82,-0.43 -10.23,-0.61 z" />
    <path
       style="fill:#020202"
       inkscape:connector-curvature="0"
       id="path3416"
       d="m 172.43,62.74 c 2.61,-0.46 7.01,-0.71 9.65,-0.63 44.3,0.33 88.6,0.12 132.9,0.21 28.13,-0.18 56.28,0.34 84.39,-0.46 3.41,0.18 6.82,0.39 10.23,0.61 17.5,2.47 34.76,7.28 50.43,15.6 2.22,-4.63 2.10612,-7.832614 7.2753,-16.817006 -1.94,5.95 -5.7453,14.277006 -7.5653,20.277006 -0.31,-1.06 -0.62,-2.11 -0.92,-3.17 -22.4,-11.5 -47.8,-16.93 -72.94,-15.61 -0.01,6.74 0.01,13.49 0.05,20.23 6.77,0.29 13.59,-0.26 20.33,0.68 12.59,1.27 24.94,4.63 36.54,9.66 3.63,1.73 7.27,3.46 11.05,4.85 18.14,9.98 33.54,24.84 44.45,42.42 -6.22,4.12 -12.31,8.43 -18.48,12.62 8.15,15.98 13.27,33.74 13.12,51.78 0.36,17.96 -3.86,36.03 -12.18,51.96 -0.16,0.46 -0.46,1.37 -0.62,1.83 6.05,4.3 12.18,8.51 18.38,12.62 -10.84,17.84 -27.4953,33.51175 -45.7353,43.65175 l -0.008,-0.92322 c 17.55,-10 33.8335,-25.26853 44.6235,-42.33853 -5.18,-3.57 -10.34,-7.17 -15.54,-10.71 -1.94,-1.6 -4.56,-1.11 -6.87,-1.18 -20.75,0.09 -41.5,0 -62.25,0.04 0.03,-36.25 -0.01,-72.49 0.02,-108.74 22.8,-0.15 45.61,-0.29 68.4,0.09 5.3,-3.72 10.64,-7.36 16,-10.99 -11,-17.32 -26.33,-31.89 -44.32,-41.77 -1.85,4.97 -3.35,10.07 -5.36,14.99 0.11,-5.23 3.06,-9.86 4.45,-14.8 -16.25,-8.78 -34.43,-13.98 -52.9,-14.83 -4.42,-0.09 -8.85,0.02 -13.27,-0.07 0,3.12 -0.01,6.24 0,9.37 4.86,0.1 9.73,0.09 14.59,0.14 -0.06,3.41 -0.09,6.83 -0.07,10.25 1.59,0.04 3.2,0.07 4.81,0.14 -0.39,0.18 -1.16,0.55 -1.54,0.74 -1.35,-0.09 -2.69,-0.16 -4.03,-0.23 -0.04,-3.39 -0.04,-6.79 -0.01,-10.18 -4.84,-0.04 -9.67,0 -14.5,-0.03 -0.03,-3.37 -0.04,-6.74 -0.02,-10.11 -1.68,-0.03 -3.35,-0.05 -5.01,-0.08 -0.15,19.9 0.07,39.81 -0.09,59.72 -54.29,-0.09 -108.58,-0.02 -162.86,-0.04 -3.07,-0.09 -6.19,0.33 -9.2,-0.31 -0.16,-19.73 -0.08,-39.47 -0.03,-59.2 -1.64,-0.07 -3.28,-0.13 -4.92,-0.2 0.05,3.71 0.04,7.42 -0.03,11.12 -4.87,0.12 -9.74,0.09 -14.6,0.08 -0.01,3.28 0,6.56 0.08,9.84 -8.44,0.34 -16.87,1.48 -25.03,3.66 3.01,-2.45 7.05,-2.34 10.67,-3.07 4.45,-0.81 8.96,-1.15 13.47,-1.39 -0.03,-3.28 -0.04,-6.55 -0.05,-9.82 4.95,0 9.91,0.03 14.86,-0.08 0.1,-3.43 0.09,-6.87 0,-10.3 -7.09,0.15 -14.18,-0.19 -21.26,0.1 -14.64,1.06 -29.14,4.43 -42.55,10.46 -2.36,1.19 -5.67,1.88 -6.14,4.95 l -0.76,-1.48 c -18.5,9.41 -34.09,24.03 -45.71,41.15 l -1.14,0.47 C 95.17,122.96 109.89,109.3 126.71,99.36 123.52,93.34 120.73,87.11 117.38,81.17 93.57,95.01 73.45,115.39 60.84,139.95 49.7,161.09 43.97,185.1 44.58,209 c 0.23,32.68 12.52,65 33.54,89.96 11.11,13.53 25,24.59 40.12,33.34 3.39,-5.7 6.10962,-13.07995 10.19962,-18.32995 0.60601,1.82092 -2.71536,6.08682 -4.02065,8.55299 -1.82892,3.45551 -3.79504,6.84824 -5.49897,10.36696 1.54,0.56 3.09,1.12 4.65,1.68 2.43,-6.23 5.75,-12.05 8.36,-18.2 -19.42,-9.81 -36,-25.13 -47.71,-43.46 -17.97,-27.72 -23.61,-62.83 -16.03,-94.92 0.83,-2.9 0.97,-6.26 3.23,-8.49 -8.9,29.4 -6.85,62.02 6.52,89.76 31.51,-0.28 63.02,-0.02 94.53,-0.1 0.04,-35.76 0.02,-71.52 0.01,-107.28 -31.35,0.01 -62.72,-0.28 -94.07,0.15 -2.54,5.67 -4.82,11.44 -6.96,17.26 0.02,-1.46 -0.02,-2.96 0.55,-4.34 2.07,-5.7 4.56,-11.23 7.39,-16.59 1.66,-3.09 3.13,-6.44 5.94,-8.69 -2.14,3.83 -4.42,7.58 -6.38,11.51 31.43,-0.14 62.86,-0.17 94.28,0 0.05,36.25 0.02,72.51 0.02,108.76 -31.68,0.02 -63.35,-0.14 -95.03,0.06 11.61,23.58 30.67,43.48 54.08,55.54 0.77,-1.76 1.5,-3.53 2.41,-5.22 -0.2,1.99 -0.82,3.89 -1.66,5.69 12.47,6.38 26.06,10.55 39.96,12.28 9.86,1.33 19.82,0.36 29.73,0.83 0.1,-3.4 0.1,-6.79 -0.04,-10.18 -4.83,-0.04 -9.66,-0.02 -14.49,-0.1 -0.1,-3.33 -0.14,-6.66 -0.15,-9.99 -2.63,-0.16 -5.25,-0.31 -7.87,-0.45 0.26,-0.22 0.8,-0.67 1.07,-0.89 9.04,1.06 18.17,0.18 27.25,0.46 -0.02,-16.93 0,-33.86 -0.01,-50.79 34.5,-0.34 69,-0.02 103.5,-0.16 22.93,0.17 45.86,-0.21 68.78,0.19 0.47,16.92 0.02,33.85 0.22,50.77 8.91,-0.3 17.87,0.61 26.75,-0.43 0.27,0.23 0.82,0.69 1.1,0.91 -2.86,0.11 -5.7,0.29 -8.54,0.56 0.0636,1.83853 -0.0311,7.23799 -0.37336,9.30282 -0.19576,1.1809 -0.56589,-0.18088 -0.8836,-0.25249 -0.1,-1.63 0.017,-3.78033 0.10695,-5.40033 0.11,-1.31 0.23,-2.6 0.34,-3.9 -27.16,-0.03 -54.32,-0.2 -81.48,0.11 -15.18,0.15 -30.37,0.12 -45.55,0 -27.87,-0.33 -55.74,-0.1 -83.61,-0.12 -0.01,3.11 0.02,6.23 0.07,9.35 4.9,0.03 9.81,-0.01 14.72,0.07 -0.1,3.63 -0.12,7.27 -0.08,10.91 22.96,0.27 45.93,0.12 68.89,0.08 15.21,-0.2 30.41,-0.16 45.62,-0.06 l 1.21,-0.24 c 0.32,-5.95 -0.02,-11.91 0.22,-17.86 0.16,6.03 0.12,12.06 -0.03,18.09 21.55,-0.01 43.1,-0.05 64.65,0.04 l 0.61,-0.2 c 0.14,-3.71 0.08,-7.42 0.08,-11.12 4.81,0.07 9.71607,-0.0665 14.52607,-0.0965 0.31,0.29 0.81393,0.88652 1.11393,1.16652 -4.89,-0.14 -9.79,-0.12 -14.69,-0.13 0,3.45 0.01,6.9 0.03,10.35 6.7,-0.09 13.43,0.3 20.11,-0.52 12.24,-1.18 24.24,-4.44 35.56,-9.2 4.18,-1.72 8.06,-4.12 12.31,-5.68 -1.62,2.32 -4.22645,4.2035 -6.57645,5.4735 -12.27579,7.67995 -28.66,10.61 -43.83,11.87 -5.73,0.36 -11.82355,-1.2635 -17.55355,-1.1335 -0.1,6.82 -0.04,13.65 -0.04,20.47 25.25,1.17 50.14503,-4.84569 72.70503,-16.23569 0.25,-1.06 0.15644,-1.98857 0.42647,-3.03857 0.75,2.69 2.78853,5.67426 3.53853,8.37426 -0.21,-0.25 -0.62,-0.76 -0.83,-1.01 -0.57,-1.11 -1.11,-2.22 -1.61,-3.34 -14.8,7.29 -30.62,12.68 -47.03,14.77 -11.57,1.88 -23.33,1.23 -35,1.34 -62.65,-0.02 -125.3,-0.01 -187.95,0 -15.97,0.24 -31.96,-2.28 -47.12,-7.27 -26.46,-8.67 -50.2,-25.3 -67.57,-47.04 C 54.82,271.47 43.38,238.79 43.75,206.07 43.49,166.39 60.84,127.08 90.08,100.3 c 21.1,-19.74 48.35,-32.69 76.89,-37 9.64,-1.31 10.61,-0.71 12.75,-0.47 -17.35,1.82 -40.67,7.29 -56.22,15.21 2.72,6.2 5.8,12.23 8.66,18.36 16.08,-8.06 33.86,-12.8 51.87,-13.35 5.97,-0.04 11.94,0.12 17.91,0 0.25,-6.76 0.18,-13.51 0.11,-20.27 -9.29,-0.23 -20.35,0.57 -29.62,-0.04 z"
       sodipodi:nodetypes="cccccccccccccccccccccccccccccccccccccccccccccccccccccccccccccccccccccccsccccccccccccccccccccccccccccccccccccscccccccccccccccccccccccccccccccccccccccccccccccc" />
    <path
       style="fill:#767676"
       inkscape:connector-curvature="0"
       id="path3418"
       d="m 202.87,62.73 c 1.59,0.01 3.17,0.02 4.76,0.04 0.16,6.88 0.12,13.76 0.01,20.64 -1.62,-0.09 -3.24,-0.17 -4.86,-0.25 0.16,-6.81 0.07,-13.62 0.09,-20.43 z" />
    <path
       style="fill:#ececec"
       inkscape:connector-curvature="0"
       id="path3420"
       d="m 208.51,62.8 c 56.89,-0.14 113.79,0.03 170.69,-0.08 -0.01,26.67 0.02,53.35 -0.1,80.02 -56.86,0.01 -113.73,0.03 -170.59,-0.01 0,-26.64 -0.02,-53.29 0,-79.93 z" />
    <path
       style="fill:#777777"
       inkscape:connector-curvature="0"
       id="path3422"
       d="m 380.3,62.84 c 1.6,-0.03 3.2,-0.06 4.8,-0.08 -0.01,6.85 0.03,13.71 0.03,20.56 -1.61,-0.05 -3.23,-0.1 -4.84,-0.15 -0.04,-6.78 0.06,-13.55 0.01,-20.33 z" />
    <path
       style="fill:#767676"
       inkscape:connector-curvature="0"
       id="path3424"
       d="m 385.88,62.75 c 25.14,-1.32 50.54,4.11 72.94,15.61 0.3,1.06 0.46,0.56 0.77,1.62 -2.49121,4.945167 -4.62614,12.745929 -6.64,17.94 -3.78,-1.39 -6.52,-2.87 -10.15,-4.6 -11.6,-5.03 -23.95,-8.39 -36.54,-9.66 -6.74,-0.94 -13.56,-0.39 -20.33,-0.68 -0.04,-6.74 -0.06,-13.49 -0.05,-20.23 z"
       sodipodi:nodetypes="cccccccc" />
    <path
       style="fill:#080808"
       inkscape:connector-curvature="0"
       id="path3426"
       d="m 415.07,68.12 c 1.2,0.02 2.4,0.05 3.62,0.07 1.68,3.31 3.27,6.68 5.09,9.92 0.14,-3.21 -0.66,-6.61 0.32,-9.7 0.45,-0.14 1.35,-0.43 1.8,-0.57 0.15,4.11 0.1,8.21 0.11,12.32 -1.32,-0.05 -2.63,-0.1 -3.94,-0.15 -1.6,-3.12 -2.87,-6.42 -4.83,-9.34 -0.17,3.11 0.01,6.22 -0.18,9.32 -0.51,0.11 -1.52,0.33 -2.02,0.45 -0.06,-4.11 -0.06,-8.22 0.03,-12.32 z" />
    <path
       style="fill:#050505"
       inkscape:connector-curvature="0"
       id="path3428"
       d="m 157.01,69.63 c 0.52,0.09 1.55,0.28 2.06,0.37 0.17,3.3 0.01,6.6 0.06,9.9 1.87,-0.03 3.73,-0.06 5.6,-0.1 l 0.08,2.04 c -2.61,-0.02 -5.21,-0.05 -7.81,-0.11 0.02,-4.03 0.01,-8.06 0.01,-12.1 z" />
    <path
       style="fill:#747474"
       inkscape:connector-curvature="0"
       id="path3430"
       d="m 118.58,80.25 c 1.42,-0.54 2.83,-1.08 4.25,-1.62 2.62,6.24 5.91,12.18 8.62,18.39 -1.37,0.62 -2.73,1.24 -4.09,1.87 -2.68,-6.33 -6.6,-12.12 -8.78,-18.64 z" />
    <path
       style="fill:#767676"
       inkscape:connector-curvature="0"
       id="path3432"
       d="m 60.84,139.95 c 12.61,-24.56 32.73,-44.94 56.54,-58.78 3.35,5.94 6.14,12.17 9.33,18.19 -16.82,9.94 -31.54,23.6 -42.02,40.13 l 1.14,-0.47 c -0.12,0.16 -0.37,0.49 -0.5,0.65 -2.81,2.25 -4.28,5.6 -5.94,8.69 -2.83,5.36 -5.32,10.89 -7.39,16.59 -0.57,1.38 -0.53,2.88 -0.55,4.34 l -0.03,0.21 c -2.26,2.23 -2.4,5.59 -3.23,8.49 -7.58,32.09 -1.94,67.2 16.03,94.92 11.71,18.33 28.29,33.65 47.71,43.46 -2.61,6.15 -5.93,11.97 -8.36,18.2 -1.56,-0.56 -3.11,-1.12 -4.65,-1.68 2.92,-6.03 6.61,-11.69 9.06,-17.93 -4.09,5.25 -6.35,11.64 -9.74,17.34 C 103.12,323.55 89.23,312.49 78.12,298.96 57.1,274 44.81,241.68 44.58,209 43.97,185.1 49.7,161.09 60.84,139.95 Z" />
    <path
       style="fill:#767676"
       inkscape:connector-curvature="0"
       id="path3436"
       d="m 138.44,94.4 c 13.41,-6.03 27.91,-9.4 42.55,-10.46 7.08,-0.29 14.17,0.05 21.26,-0.1 0.09,3.43 0.1,6.87 0,10.3 -4.95,0.11 -9.91,0.08 -14.86,0.08 0.01,3.27 0.02,6.54 0.05,9.82 -4.51,0.24 -9.02,0.58 -13.47,1.39 -3.62,0.73 -7.66,0.62 -10.67,3.07 l -0.36,0.22 c -0.48,-1.96 -4.26,-0.43 -1.73,0.67 -0.58,0.08 -1.75,0.24 -2.33,0.32 -0.08,0.01 -0.23,0.03 -0.31,0.03 l -0.13,0.07 c -0.24,0.11 -0.72,0.33 -0.96,0.44 -6.54,0.38 -11.01,5.8 -16.74,8.16 l -0.59,-1.5 c 0.04,-0.03 0.12,-0.08 0.16,-0.11 l -0.27,-0.17 c -0.1,-0.24 -0.31,-0.72 -0.41,-0.96 -0.92,-5.18 -3.17,-10.22 -6.36,-14.41 l -0.16,-0.31 0.36,0.01 -0.12,-0.32 -0.43,-0.08 c -0.16,-0.3 -0.47,-0.91 -0.62,-1.21 0.47,-3.07 3.78,-3.76 6.14,-4.95 z" />
    <path
       style="fill:#ffffff"
       inkscape:connector-curvature="0"
       id="path3438"
       d="m 202.88,83.8 c 1.64,0.07 3.28,0.13 4.92,0.2 -0.05,19.73 -0.13,39.47 0.03,59.2 3.01,0.64 6.13,0.22 9.2,0.31 54.28,0.02 108.57,-0.05 162.86,0.04 0.16,-19.91 -0.06,-39.82 0.09,-59.72 1.66,0.03 3.33,0.05 5.01,0.08 -0.02,3.37 -0.01,6.74 0.02,10.11 4.83,0.03 9.66,-0.01 14.5,0.03 -0.03,3.39 -0.03,6.79 0.01,10.18 1.34,0.07 2.68,0.14 4.03,0.23 0.71,0.07 2.15,0.21 2.86,0.28 4.11,0.27 8.19,0.87 12.22,1.72 l 0.12,0.05 c 1.21,0.68 2.51,1.03 3.91,1.03 l 0.06,0.03 c 0.64,0.23 1.93,0.69 2.58,0.92 l 0.42,0.02 c 7.11,2.59 13.88,6.1 19.9,10.71 0.62,-1.85 0.8692,-8.97194 1.81,-5.57 l -0.55,1.27 c 2.01,-4.92 4.11,-11.42 5.96,-16.39 17.99,9.88 33.32,24.45 44.32,41.77 -5.36,3.63 -10.7,7.27 -16,10.99 -22.79,-0.38 -45.6,-0.24 -68.4,-0.09 -0.03,36.25 0.01,72.49 -0.02,108.74 20.75,-0.04 41.5,0.05 62.25,-0.04 2.31,0.07 4.93,-0.42 6.87,1.18 5.2,3.54 10.36,7.14 15.54,10.71 -10.79,17.07 -25.73,31.49 -43.28,41.49 l -1.6,0.17 c -0.23,-0.71 -0.7,-2.12 -0.94,-2.83 l -0.14,-0.26 c -0.43,-1.89 -0.74,-3.88 -1.84,-5.5 -0.09,-0.14 -0.28,-0.43 -0.37,-0.57 -0.78,-2.73 -1.66,-5.43 -2.72,-8.06 l -0.05,-0.13 c -0.33,-0.97 -0.64,-1.93 -0.95,-2.9 -4.37,3.42 -9.27,6.01 -14.16,8.58 -0.21,0.11 -0.65,0.34 -0.86,0.45 l -0.36,0.1 -0.56,0.14 c -0.73,0.22 -2.17,0.66 -2.89,0.88 -0.13,0.09 -0.39,0.26 -0.52,0.35 -5.51,1.63 -11.09,3.13 -16.83,3.66 -0.39,0.05 -1.19,0.15 -1.58,0.19 -8.88,1.04 -17.84,0.13 -26.75,0.43 -0.2,-16.92 0.25,-33.85 -0.22,-50.77 -22.92,-0.4 -45.85,-0.02 -68.78,-0.19 -34.5,0.14 -69,-0.18 -103.5,0.16 0.01,16.93 -0.01,33.86 0.01,50.79 -9.08,-0.28 -18.21,0.6 -27.25,-0.46 -0.39,-0.04 -1.16,-0.13 -1.55,-0.18 -3.53,-0.36 -7.07,-0.72 -10.51,-1.59 -0.52,-0.15 -1.54,-0.45 -2.05,-0.6 -0.48,-0.13 -1.43,-0.39 -1.91,-0.52 -0.45,-0.1 -1.36,-0.29 -1.81,-0.39 -0.72,-0.19 -2.15,-0.57 -2.86,-0.76 l -0.24,-0.11 c -0.71,-0.26 -2.14,-0.77 -2.85,-1.03 l -0.5,-0.11 -0.5,-0.16 c -0.21,-0.07 -0.63,-0.22 -0.84,-0.3 -4.78,-2.4 -9.49,-5.04 -13.37,-8.78 -1.22,2.68 -2.41,5.37 -3.46,8.13 -0.06,0.1 -0.17,0.32 -0.23,0.42 -1.15,2.15 -2.13,4.38 -2.94,6.68 -0.09,0.23 -0.26,0.69 -0.34,0.92 l -0.16,0.38 c -0.11,0.21 -0.32,0.61 -0.43,0.81 -0.91,1.69 -1.64,3.46 -2.41,5.22 C 108.89,303.48 89.83,283.58 78.22,260 c 31.68,-0.2 63.35,-0.04 95.03,-0.06 0,-36.25 0.03,-72.51 -0.02,-108.76 -31.42,-0.17 -62.85,-0.14 -94.28,0 1.96,-3.93 4.24,-7.68 6.38,-11.51 0.13,-0.16 0.38,-0.49 0.5,-0.65 11.62,-17.12 27.21,-31.74 45.71,-41.15 l 0.76,1.48 c 0.15,0.3 0.46,0.91 0.62,1.21 l 0.19,0.39 0.16,0.31 c 1.97,4.87 4.12,9.66 6.36,14.41 0.1,0.24 0.31,0.72 0.41,0.96 l 0.11,0.28 0.59,1.5 c 0.22,0.55 0.44,1.09 0.66,1.63 4.69,-4.28 10.25,-7.38 16.08,-9.79 l 0.96,-0.44 0.44,-0.1 c 0.58,-0.08 1.75,-0.24 2.33,-0.32 0.43,-0.17 1.3,-0.51 1.73,-0.67 l 0.36,-0.22 c 8.16,-2.18 16.59,-3.32 25.03,-3.66 -0.08,-3.28 -0.09,-6.56 -0.08,-9.84 4.86,0.01 9.73,0.04 14.6,-0.08 0.07,-3.7 0.08,-7.41 0.03,-11.12 z"
       sodipodi:nodetypes="ccccccccccccccccccccccccccccccccccccccccccccccccccccccccccccccccccccccccccccccccccccccccccccccccc" />
    <path
       style="fill:#757575"
       inkscape:connector-curvature="0"
       id="path3440"
       d="m 385.76,83.82 c 4.42,0.09 8.85,-0.02 13.27,0.07 18.47,0.85 36.65,6.05 52.9,14.83 -1.39,4.94 -4.34,9.57 -4.45,14.8 l -0.05,0.13 c -0.87,1.32 -1.75,2.62 -2.6,3.94 -4.66,-3.38 -9.71,-6.23 -15.04,-8.41 -10.06062,-2.69489 -17.13545,-3.82324 -26.24,-4.72 0.38,-0.19 1.6,-0.06 1.99,-0.24 -1.61,-0.07 -3.67,-0.6 -5.26,-0.64 -0.02,-3.42 0.01,-6.84 0.07,-10.25 -4.86,-0.05 -9.73,-0.04 -14.59,-0.14 -0.01,-3.13 0,-6.25 0,-9.37 z"
       sodipodi:nodetypes="ccccccccccccc" />
    <path
       style="fill:#080808"
       inkscape:connector-curvature="0"
       id="path3444"
       d="m 157.7,90.69 c 2.79,-0.02 5.59,-0.01 8.39,0.05 0.15,3.5 -3.85,1.47 -5.84,1.89 -0.1,1.07 -0.19,2.14 -0.27,3.22 2.09,0.32 5.35,-1.03 6.11,1.75 -2.04,0.15 -4.09,0.23 -6.13,0.3 0.04,0.71 0.13,2.11 0.18,2.81 2.03,-0.02 4.07,-0.01 6.1,0.02 l -0.37,1.86 c -2.7,0.38 -5.43,0.13 -8.14,0.03 -0.04,-3.98 -0.05,-7.95 -0.03,-11.93 z" />
    <path
       style="fill:#020202"
       inkscape:connector-curvature="0"
       id="path3446"
       d="m 415.48,92.36 c 1.87,-2.02 4.95,-1.92 7.46,-1.49 1.71,0.31 2.87,2.41 1.72,3.9 -1.77,-0.37 -2.63,-2.74 -4.72,-2.11 -4.26,-0.4 -2.5,4.87 -2.9,7.45 1.86,0.51 3.79,0.6 5.72,0.6 0.09,-0.64 0.27,-1.92 0.35,-2.56 -0.88,-0.08 -2.65,-0.25 -3.54,-0.33 0.85,-2.31 3.58,-1.19 5.41,-1.52 0.06,1.85 0.01,3.71 -0.14,5.56 -2.98,0.92 -6.71,1.76 -9.27,-0.56 -0.93,-2.84 -0.7,-6.04 -0.09,-8.94 z" />
    <path
       style="fill:#191919"
       inkscape:connector-curvature="0"
       id="path3460"
       d="m 132.92,100.56 0.43,0.08 0.12,0.32 -0.36,-0.01 -0.19,-0.39 z" />
    <path
       style="fill:#020202"
       inkscape:connector-curvature="0"
       id="path3464"
       d="m 133.27,101.26 c 3.19,4.19 5.44,9.23 6.36,14.41 -2.24,-4.75 -4.39,-9.54 -6.36,-14.41 z" />
    <path
       style="fill:#282828"
       inkscape:connector-curvature="0"
       id="path3472"
       d="m 161.21,109.39 c -2.53,-1.1 1.25,-2.63 1.73,-0.67 -0.43,0.16 -1.3,0.5 -1.73,0.67 z" />
    <path
       style="fill:#020202"
       inkscape:connector-curvature="0"
       id="path3474"
       d="m 425.72,108.51 c 1.37,0.03 2.29,-0.18 3.57,0.42 5.33,2.18 10.88,5.28 15.54,8.66 0.85,-1.32 3.83364,-9.24913 4.70364,-10.56913 -0.59,1.86 -3.29364,10.34913 -3.91364,12.19913 -6.02,-4.61 -12.79,-8.12 -19.9,-10.71 z"
       sodipodi:nodetypes="cccccc" />
    <path
       style="fill:#0c0c0c"
       inkscape:connector-curvature="0"
       id="path3476"
       d="m 158.57,109.74 c 0.08,0 0.23,-0.02 0.31,-0.03 l -0.44,0.1 0.13,-0.07 z" />
    <path
       style="fill:#020202"
       inkscape:connector-curvature="0"
       id="path3478"
       d="m 140.74,118.41 c 5.73,-2.36 10.2,-7.78 16.74,-8.16 -5.83,2.41 -11.39,5.51 -16.08,9.79 -0.22,-0.54 -0.44,-1.08 -0.66,-1.63 z" />
    <path
       style="fill:#101010"
       inkscape:connector-curvature="0"
       id="path3482"
       d="m 140.04,116.63 0.27,0.17 c -0.04,0.03 -0.12,0.08 -0.16,0.11 l -0.11,-0.28 z" />
    <path
       style="fill:#ececec"
       inkscape:connector-curvature="0"
       id="path3486"
       d="m 78.41,152.03 c 31.35,-0.43 62.72,-0.14 94.07,-0.15 0.01,35.76 0.03,71.52 -0.01,107.28 -31.51,0.08 -63.02,-0.18 -94.53,0.1 C 64.57,231.52 62.52,198.9 71.42,169.5 l 0.03,-0.21 c 2.14,-5.82 4.42,-11.59 6.96,-17.26 z" />
    <path
       style="fill:#ececec"
       inkscape:connector-curvature="0"
       id="path3488"
       d="m 413.52,151.89 c 21.92,-0.09 43.85,-0.15 65.77,0.05 -0.46,2.23 0.88,4.14 1.8,6.05 15.72,31.47 14.61,70.36 -2.29,101.15 -21.75,0.07 -43.51,0.02 -65.27,0.02 -0.04,-35.76 -0.03,-71.51 -0.01,-107.27 z" />
    <path
       style="fill:#7a7a7a"
       inkscape:connector-curvature="0"
       id="path3496"
       d="m 208.99,160.98 c 56.67,0.15 113.35,0.15 170.02,0.01 -0.22,26.79 -0.04,53.59 -0.04,80.38 l -1.48,0.31 c 0.82,-4.2 0.63,-8.49 0.62,-12.74 -56.08,0.03 -112.13,-0.07 -168.21,0.08 0.07,4.23 -0.28,8.51 0.68,12.67 l -1.55,-0.36 c 0.05,-26.78 0.11,-53.57 -0.04,-80.35 z" />
    <path
       style="fill:#ffffff"
       inkscape:connector-curvature="0"
       id="path3498"
       d="m 210.01,161.88 c 27.83,0.07 55.67,0.05 83.51,0 0.1,3.75 0.1,7.51 -0.02,11.26 -27.87,-0.22 -55.74,0.06 -83.62,-0.11 0.02,-3.71 0.05,-7.43 0.13,-11.15 z" />
    <path
       style="fill:#ffffff"
       inkscape:connector-curvature="0"
       id="path3500"
       d="m 294.45,161.91 c 27.89,-0.04 55.77,0.1 83.66,-0.05 -0.01,3.71 0,7.43 0.02,11.15 -27.89,0.16 -55.78,-0.05 -83.67,0.11 -0.07,-3.74 -0.06,-7.47 -0.01,-11.21 z" />
    <path
       style="fill:#ffffff"
       inkscape:connector-curvature="0"
       id="path3504"
       d="m 209.9,173.9 c 12.74,0.03 25.49,0.06 38.24,0.01 -0.13,18.07 -0.01,36.13 -0.06,54.2 -12.73,0.02 -25.47,-0.07 -38.2,0 0.09,-18.07 0.03,-36.14 0.02,-54.21 z" />
    <path
       style="fill:#ffffff"
       inkscape:connector-curvature="0"
       id="path3506"
       d="m 249.02,173.86 c 14.98,0.27 29.98,-0.3 44.95,0.3 15.03,-0.56 30.08,-0.07 45.12,-0.28 -0.1,18.09 -0.08,36.14 -0.03,54.22 -30.05,-0.05 -60.06,-0.07 -90.11,0.02 -0.02,-9.03 -0.22,-18.07 0.22,-27.09 -0.46,-9.05 -0.27,-18.11 -0.15,-27.17 z" />
    <path
       style="fill:#ffffff"
       inkscape:connector-curvature="0"
       id="path3508"
       d="m 339.94,173.93 c 12.7,-0.07 25.41,0.04 38.11,-0.04 0.03,18.06 0,36.12 0.09,54.18 -12.74,0.08 -25.47,-0.1 -38.2,0.06 -0.08,-18.07 -0.05,-36.13 0,-54.2 z" />
    <path
       style="fill:#020202"
       inkscape:connector-curvature="0"
       id="path3514"
       d="m 49.39,195.28 c 0.58,0 1.74,-0.01 2.31,-0.02 0.02,1.75 0.04,3.51 0.11,5.26 2.87,-1.46 3.8,-5.55 7.45,-5.58 -1.09,2.36 -2.87,4.27 -4.63,6.14 1.81,2.03 3.61,4.08 5.21,6.28 -3.89,0.59 -5.14,-4.03 -7.98,-5.73 -0.11,1.94 -0.17,3.87 -0.23,5.81 -0.54,0 -1.62,-0.02 -2.16,-0.02 -0.02,-4.05 -0.01,-8.09 -0.08,-12.14 z" />
    <path
       style="fill:#bebebe"
       inkscape:connector-curvature="0"
       id="path3576"
       d="m 209.28,257.84 c 34.24,-0.32 68.49,0 102.73,-0.15 22.71,0.17 45.42,-0.18 68.12,0.17 0.41,16.7 0.01,33.41 0.19,50.11 -23.43,0.11 -46.86,-0.34 -70.28,0.33 -14.01,-0.21 -28.02,0.29 -42.02,-0.33 -19.58,-0.03 -39.16,-0.04 -58.74,0.01 -0.04,-16.71 -0.03,-33.43 0,-50.14 z" />
    <path
       style="fill:#020202"
       inkscape:connector-curvature="0"
       id="path3646"
       d="m 445.51,293.2 c 0.31,0.97 0.62,1.93 0.95,2.9 -0.66,-0.39 -1.32,-0.77 -1.98,-1.13 -4.09,2.72 -8.16,5.96 -13.13,6.81 4.89,-2.57 9.79,-5.16 14.16,-8.58 z" />
    <path
       style="fill:#767676"
       inkscape:connector-curvature="0"
       id="path3648"
       d="m 142.37,294.78 c 18.26621,10.46761 21.31663,10.75218 38.89,12.73 -0.27,0.22 -0.81,0.67 -1.07,0.89 2.62,0.14 5.24,0.29 7.87,0.45 0.01,3.33 0.05,6.66 0.15,9.99 4.83,0.08 9.66,0.06 14.49,0.1 0.14,3.39 0.14,6.78 0.04,10.18 -9.91,-0.47 -19.87,0.5 -29.73,-0.83 -13.9,-1.73 -27.49,-5.9 -39.96,-12.28 1.57627,-7.88572 6.5723,-14.25215 9.32,-21.23 z"
       sodipodi:nodetypes="cccccccccc" />
    <path
       style="fill:#757575"
       inkscape:connector-curvature="0"
       id="path3650"
       d="m 444.48,294.97 c 0.66,0.36 1.32,0.74 1.98,1.13 l 0.05,0.13 c 0.51517,3.6449 5.55502,17.33004 6.01,17.22 l -0.16777,0.78459 0.89208,0.14541 c 0,0 7.9074,20.34774 5.52356,19.56218 -22.56,11.39 -47.73787,17.61782 -72.98787,16.44782 0,-6.82 -0.06,-13.65 0.04,-20.47 5.73,-0.13 13.30848,0.29142 19.03848,-0.0686 3.00759,-0.24981 5.89059,-0.58193 8.68686,-1.00605 11.30784,-1.71511 21.19746,-4.93462 32.17329,-10.29826 2.35,-1.27 8.34137,-3.87961 7.32387,-4.34961 -4.25,1.56 -7.3925,3.4725 -11.5725,5.1925 -11.32,4.76 -23.32,8.02 -35.56,9.2 -6.68,0.82 -13.41,0.43 -20.11,0.52 -0.02,-3.45 -0.03,-6.9 -0.03,-10.35 4.9,0.01 9.19896,-0.0454 14.08896,0.0946 0.31845,-1.93088 0.44167,-6.3045 0.45104,-9.83464 14.08602,-1.47455 29.79706,-4.43569 44.17,-14.05 z"
       sodipodi:nodetypes="ccccccccccscccccccccc" />
    <path
       style="fill:#131313"
       inkscape:connector-curvature="0"
       id="path3664"
       d="m 430.13,302.33 0.36,-0.1 -0.12,0.06 -0.17,0.03 -0.07,0.01 z" />
    <path
       style="fill:#101010"
       inkscape:connector-curvature="0"
       id="path3676"
       d="m 135.3,309.13 -0.02,0.03 -0.03,0.21 -0.11,0.14 0.16,-0.38 z" />
    <path
       style="fill:#757575"
       inkscape:connector-curvature="0"
       id="path3678"
       d="m 188.86,308.76 c 27.87,0.02 55.74,-0.21 83.61,0.12 -0.01,6.76 -0.01,13.53 -0.01,20.29 -22.96,0.04 -45.93,0.19 -68.89,-0.08 -0.04,-3.64 -0.02,-7.28 0.08,-10.91 -4.91,-0.08 -9.82,-0.04 -14.72,-0.07 -0.05,-3.12 -0.08,-6.24 -0.07,-9.35 z" />
    <path
       style="fill:#fefefe"
       inkscape:connector-curvature="0"
       id="path3680"
       d="m 272.47,308.88 c 15.18,0.12 30.37,0.15 45.55,0 -0.03,6.74 -0.08,13.48 0.06,20.23 -15.21,-0.1 -30.41,-0.14 -45.62,0.06 0,-6.76 0,-13.53 0.01,-20.29 z" />
    <path
       style="fill:#757575"
       inkscape:connector-curvature="0"
       id="path3682"
       d="m 318.02,308.88 c 27.16,-0.31 54.32,-0.14 81.48,-0.11 -0.29562,3.08151 -0.27904,5.81315 -0.4247,9.00569 -4.56,0.07 -9.61497,0.0193 -14.17497,0.0993 -0.03,3.92 0.0614,7.38039 -0.0986,11.30039 -21.55,-0.09 -43.77175,-0.0854 -65.32175,-0.0754 0.15,-6.03 0.19,-12.06 0.03,-18.09 -0.24,5.95 0.1,11.91 -0.22,17.86 l -1.21,0.24 c -0.14,-6.75 -0.09,-13.49 -0.06,-20.23 z"
       sodipodi:nodetypes="cccccccccc" />
    <path
       style="fill:#020202"
       inkscape:connector-curvature="0"
       id="path3684"
       d="m 157.6,312.48 c 1.07,-2.98 4.93,-2.34 7.39,-2.09 2,0.24 1.74,2.66 2.16,4.08 -2.22,-1.21 -4.96,-3.89 -7.45,-1.61 -0.68,2.39 -0.27,4.92 0.08,7.34 2.13,-0.26 5.72,1.04 5.59,-2.34 2.59,-0.38 1.85,2.14 1.2,3.67 -2.69,1.05 -5.64,0.47 -8.43,0.26 -1.04,-2.97 -1.38,-6.25 -0.54,-9.31 z" />
    <path
       style="fill:#020202"
       inkscape:connector-curvature="0"
       id="path3686"
       d="m 418.41,310.26 c 1.1,-0.03 2.21,-0.05 3.32,-0.07 1.21,4.1 2.84,8.07 3.78,12.26 -1.57,-0.14 -2.51,-0.97 -2.81,-2.48 -1.57,-0.02 -3.14,-0.09 -4.7,0.1 -1.17,0.78 -1.62,2.47 -3.37,2.36 0.97,-4.14 2.55,-8.1 3.78,-12.17 z" />
    <path
       inkscape:connector-curvature="0"
       style="fill:#757575;fill-opacity:1"
       id="path3690"
       d="m 418.36,317.72 c 0.72,-1.88 1.41,-3.77 2.04,-5.67 0.08,2.02 0.54,3.99 1.52,5.77 -1.19,-0.04 -2.38,-0.08 -3.56,-0.1 z" />
    <path
       style="fill:#090909"
       inkscape:connector-curvature="0"
       id="path3694"
       d="m 230.83,313.22 c 3,0.17 6.28,-0.6 9.03,0.93 0.93,1.57 0.15,3.24 -0.28,4.82 1.11,1.91 1.77,4.87 -0.67,6.09 -2.66,0.51 -5.38,0.26 -8.07,0.27 0.05,-4.03 0.09,-8.07 -0.01,-12.11 z" />
    <path
       style="fill:#020202"
       inkscape:connector-curvature="0"
       id="path3696"
       d="m 349.17,314 c 2.95,-0.13 5.9,-0.12 8.85,0.01 0.94,1.75 0.49,3.67 0.38,5.55 0.2,1.93 1.37,4.65 -0.75,5.93 -2.79,0.51 -5.64,0.24 -8.46,0.28 0.02,-3.92 0.03,-7.85 -0.02,-11.77 z" />
    <path
       style="fill:#7a7a7a"
       inkscape:connector-curvature="0"
       id="path3698"
       d="m 233.06,315.18 c 1.56,0.1 3.13,0.19 4.7,0.29 0.07,0.65 0.23,1.94 0.3,2.59 -1.7,0.04 -3.4,0.08 -5.1,0.12 0.03,-0.75 0.07,-2.25 0.1,-3 z" />
    <path
       style="fill:#777777"
       inkscape:connector-curvature="0"
       id="path3700"
       d="m 351.27,316.05 c 1.93,-0.31 3.87,-0.25 5.79,0.14 -0.43,3.03 -3.4,2.61 -5.71,2.53 -0.02,-0.67 -0.06,-2.01 -0.08,-2.67 z" />
    <path
       style="fill:#767676"
       inkscape:connector-curvature="0"
       id="path3702"
       d="m 132.64,317.08 c 11.26,5.04 22.93,9.43 35.2,11.25 11.66,2.53 23.63,0.84 35.43,1.7 -0.19,6.71 0.04,13.43 -0.06,20.15 -8.38,0.39 -16.79,0.33 -25.18,-0.04 -18.73,-1.49 -37.4,-6.25 -54.06,-15.05 2.91,-5.99 5.81,-11.99 8.67,-18.01 z" />
    <path
       style="fill:#727272"
       inkscape:connector-curvature="0"
       id="path3714"
       d="m 232.92,320 c 1.75,0 3.5,0 5.25,0 -0.06,0.73 -0.18,2.18 -0.24,2.91 -1.56,0.4 -3.17,0.48 -4.76,0.64 -0.09,-1.19 -0.18,-2.37 -0.25,-3.55 z" />
    <path
       style="fill:#757575"
       inkscape:connector-curvature="0"
       id="path3716"
       d="m 351.45,320.38 c 1.38,0.01 2.77,-0.04 4.15,0.13 1.75,0.19 1.8,2.76 0.27,3.33 -1.5,0.11 -3.01,0.02 -4.5,-0.01 0.02,-1.15 0.05,-2.31 0.08,-3.45 z" />
    <path
       style="fill:#767676"
       inkscape:connector-curvature="0"
       id="path3720"
       d="m 203.76,329.8 c 1.89,0.07 3.78,0.24 5.65,0.6 -0.75,6.7 0.63,13.53 -0.85,20.15 -1.63,-0.09 -3.26,-0.17 -4.88,-0.25 0.26,-6.83 0,-13.67 0.08,-20.5 z" />
    <path
       inkscape:connector-curvature="0"
       style="fill:#767676;fill-opacity:1"
       id="path3722"
       d="m 209.6,330.71 c 1.09,-0.37 2.23,-0.55 3.39,-0.53 18.34,-0.03 36.67,0.02 55.01,0 16.78,-0.38 33.59,-0.55 50.37,-0.11 -15.79,0.85 -31.64,-0.24 -47.45,0.57 -20.44,0.14 -40.88,-0.05 -61.32,0.07 z" />
    <path
       inkscape:connector-curvature="0"
       style="fill:#767676;fill-opacity:1"
       id="path3724"
       d="m 318.37,330.07 c 20.26,-0.44 40.55,-0.17 60.81,-0.13 -0.08,6.83 -0.06,13.66 -0.11,20.49 -56.5,-0.04 -113.01,-0.02 -169.51,-0.05 0.38,-6.55 0.28,-13.12 0.04,-19.67 20.44,-0.12 40.88,0.07 61.32,-0.07 15.81,-0.81 31.66,0.28 47.45,-0.57 z" />
    <path
       inkscape:connector-curvature="0"
       style="fill:#757575;fill-opacity:1"
       id="path3726"
       d="m 380.35569,330.47858 c 0,0 2.78431,-0.34858 4.47431,-0.41858 -0.006,4.0061 0.003,8.01592 0.004,12.02718 6.3e-4,2.56721 -0.002,5.13502 -0.0136,7.70282 -0.74,0.05 -2.23,0.16 -2.97,0.22 0.58,-0.23 -2.07838,0.0978 -1.50838,-0.13218 z"
       sodipodi:nodetypes="ccscccc" />
    <path
       style="fill:#121212"
       inkscape:connector-curvature="0"
       id="path3728"
       d="m 458.64,330.61 c 0.02,-0.08 0.05,-0.23 0.06,-0.31 l 0.13,0.31 -0.19,0 z" />
    <path
       style="fill:#0b0b0b"
       inkscape:connector-curvature="0"
       id="path3732"
       d="m 162.82,332 c 0.54,0 1.63,0 2.18,0 -0.13,3.57 0.3,7.19 -0.32,10.73 -1.48,1.99 -4.38,1.32 -6.45,0.89 -1.13,-1.27 -1.02,-3.05 -1.23,-4.62 2.17,-0.4 2.51,1.48 2.96,3.1 0.72,-0.06 2.15,-0.19 2.87,-0.25 0.06,-3.29 0.06,-6.57 -0.01,-9.85 z" />
    <path
       style="fill:#020202"
       inkscape:connector-curvature="0"
       id="path3734"
       d="m 415.31,332.26 c 0.62,-0.07 1.85,-0.23 2.47,-0.3 -0.03,1.68 -0.04,3.36 -0.05,5.05 1.81,0.01 3.63,0.02 5.45,0.04 0,-1.71 0,-3.42 0.01,-5.12 0.54,0.06 1.62,0.17 2.15,0.23 0.23,3.89 0.17,7.8 0,11.7 -0.54,0.04 -1.62,0.11 -2.16,0.15 0.01,-1.69 0.01,-3.36 0.03,-5.04 -1.83,0.01 -3.65,0.01 -5.47,0.02 0,1.67 0.01,3.34 0.03,5.01 -0.61,-0.04 -1.81,-0.12 -2.41,-0.15 0.12,-3.87 0.11,-7.73 -0.05,-11.59 z" />
    <path
       style="fill:#070707"
       inkscape:connector-curvature="0"
       id="path3736"
       d="m 293.1,334.42 c 0.45,-0.15 1.35,-0.45 1.8,-0.6 0.14,4.19 0.11,8.38 0.05,12.57 -0.5,-0.1 -1.49,-0.31 -1.99,-0.41 -0.1,-3.85 -0.34,-7.73 0.14,-11.56 z" />
    <path
       style="fill:#020202"
       inkscape:connector-curvature="0"
       id="path3740"
       d="m 467.70574,355.4 c -1.64143,-3.62071 -2.6729,-7.42355 -3.26574,-10.98 1.76,3.71 3.07,7.62 4.6,11.43 -3.79,1.98 -7.64,3.83 -11.6,5.42 l 0,-0.85 c 3.64,-1.5 6.80574,-3.13 10.26574,-5.02 z"
       sodipodi:nodetypes="cccccc" />
    <path
       style="fill:#020202"
       inkscape:connector-curvature="0"
       id="path3814"
       d="m 166.69431,371.41431 c 1.82,0.24 4.36711,0.82427 6.21711,0.86427 3.43,0.33 6.76929,1.07213 10.22929,1.11213 71.98,-0.04 143.89929,-0.0907 215.87929,-0.0807 2.14,-0.04 4.27,-0.32 6.38,-0.7 3.25,-0.25 6.5,-0.44 9.75,-0.54 l 0.8,0.39 c -14.23,2.18 -28.67,1.48 -43.01,1.58 -62.32,0.02 -124.64,-0.01 -186.97,0.01 -6.58,0.01 -10.00873,-0.51645 -16.71015,-1.25929 z"
       sodipodi:nodetypes="ccccccccccc" />
    <flowRoot
       transform="translate(-0.71400538,30.856021)"
       style="font-style:normal;font-variant:normal;font-weight:bold;font-stretch:normal;font-size:8px;line-height:125%;font-family:sans-serif;-inkscape-font-specification:'sans-serif, Bold';text-align:center;letter-spacing:0px;word-spacing:0px;writing-mode:lr-tb;text-anchor:middle;fill:#000000;fill-opacity:1;stroke:none;stroke-width:1px;stroke-linecap:butt;stroke-linejoin:miter;stroke-opacity:1"
       id="flowRoot4028"
       xml:space="preserve"><flowRegion
         id="flowRegion4030"><rect
           style="font-style:normal;font-variant:normal;font-weight:bold;font-stretch:normal;font-size:8px;line-height:125%;font-family:sans-serif;-inkscape-font-specification:'sans-serif, Bold';text-align:center;writing-mode:lr-tb;text-anchor:middle"
           y="240.62024"
           x="227.36539"
           height="40.015308"
           width="135.11794"
           id="rect4032" /></flowRegion><flowPara
         style="font-style:normal;font-variant:normal;font-weight:bold;font-stretch:normal;font-size:8px;line-height:125%;font-family:sans-serif;-inkscape-font-specification:'sans-serif, Bold';text-align:center;writing-mode:lr-tb;text-anchor:middle"
         id="flowPara4034">REZ-DE-CHAUSSEZ</flowPara><flowPara
         id="flowPara4036"
         style="font-style:normal;font-variant:normal;font-weight:bold;font-stretch:normal;font-size:8px;line-height:125%;font-family:sans-serif;-inkscape-font-specification:'sans-serif, Bold';text-align:center;writing-mode:lr-tb;text-anchor:middle">GRAND PUBLIC</flowPara></flowRoot>    <flowRoot
       transform="translate(250.82313,99.820708)"
       style="font-style:normal;font-variant:normal;font-weight:bold;font-stretch:normal;font-size:8px;line-height:125%;font-family:sans-serif;-inkscape-font-specification:'sans-serif, Bold';text-align:center;letter-spacing:0px;word-spacing:0px;writing-mode:lr-tb;text-anchor:middle;fill:#000000;fill-opacity:1;stroke:none;stroke-width:1px;stroke-linecap:butt;stroke-linejoin:miter;stroke-opacity:1"
       id="flowRoot4028-6"
       xml:space="preserve"><flowRegion
         id="flowRegion4030-7"><rect
           style="font-style:normal;font-variant:normal;font-weight:bold;font-stretch:normal;font-size:8px;line-height:125%;font-family:sans-serif;-inkscape-font-specification:'sans-serif, Bold';text-align:center;writing-mode:lr-tb;text-anchor:middle"
           y="-2.0373478"
           x="-26.542816"
           height="40.015308"
           width="135.11794"
           id="rect4032-3" /></flowRegion><flowPara
         id="flowPara4065">LOGES</flowPara></flowRoot>    <flowRoot
       transform="translate(409.44951,203.52544)"
       style="font-style:normal;font-variant:normal;font-weight:bold;font-stretch:normal;font-size:8px;line-height:125%;font-family:sans-serif;-inkscape-font-specification:'sans-serif, Bold';text-align:center;letter-spacing:0px;word-spacing:0px;writing-mode:lr-tb;text-anchor:middle;fill:#000000;fill-opacity:1;stroke:none;stroke-width:1px;stroke-linecap:butt;stroke-linejoin:miter;stroke-opacity:1"
       id="flowRoot4028-6-3"
       xml:space="preserve"><flowRegion
         id="flowRegion4030-7-5"><rect
           style="font-style:normal;font-variant:normal;font-weight:bold;font-stretch:normal;font-size:8px;line-height:125%;font-family:sans-serif;-inkscape-font-specification:'sans-serif, Bold';text-align:center;writing-mode:lr-tb;text-anchor:middle"
           y="-2.0373478"
           x="-26.542816"
           height="40.015308"
           width="135.11794"
           id="rect4032-3-9" /></flowRegion><flowPara
         id="flowPara4065-8">LOGES</flowPara></flowRoot>    <flowRoot
       transform="translate(92.008994,201.75345)"
       style="font-style:normal;font-variant:normal;font-weight:bold;font-stretch:normal;font-size:8px;line-height:125%;font-family:sans-serif;-inkscape-font-specification:'sans-serif, Bold';text-align:center;letter-spacing:0px;word-spacing:0px;writing-mode:lr-tb;text-anchor:middle;fill:#000000;fill-opacity:1;stroke:none;stroke-width:1px;stroke-linecap:butt;stroke-linejoin:miter;stroke-opacity:1"
       id="flowRoot4028-6-8"
       xml:space="preserve"><flowRegion
         id="flowRegion4030-7-55"><rect
           style="font-style:normal;font-variant:normal;font-weight:bold;font-stretch:normal;font-size:8px;line-height:125%;font-family:sans-serif;-inkscape-font-specification:'sans-serif, Bold';text-align:center;writing-mode:lr-tb;text-anchor:middle"
           y="-2.0373478"
           x="-26.542816"
           height="40.015308"
           width="135.11794"
           id="rect4032-3-7" /></flowRegion><flowPara
         id="flowPara4065-6">LOGES</flowPara></flowRoot>    <flowRoot
       transform="translate(277.27318,47.700275)"
       style="font-style:normal;font-variant:normal;font-weight:bold;font-stretch:normal;font-size:8px;line-height:125%;font-family:sans-serif;-inkscape-font-specification:'sans-serif, Bold';text-align:center;letter-spacing:0px;word-spacing:0px;writing-mode:lr-tb;text-anchor:middle;fill:#000000;fill-opacity:1;stroke:none;stroke-width:1px;stroke-linecap:butt;stroke-linejoin:miter;stroke-opacity:1"
       id="flowRoot4028-6-2"
       xml:space="preserve"><flowRegion
         id="flowRegion4030-7-6"><rect
           style="font-style:normal;font-variant:normal;font-weight:bold;font-stretch:normal;font-size:8px;line-height:125%;font-family:sans-serif;-inkscape-font-specification:'sans-serif, Bold';text-align:center;writing-mode:lr-tb;text-anchor:middle"
           y="-2.0367317"
           x="-53.589691"
           height="40.015308"
           width="135.11794"
           id="rect4032-3-2" /></flowRegion><flowPara
         id="flowPara4127">PLACEMENT LIBRE</flowPara></flowRoot>    <flowRoot
       transform="translate(275.13117,360.43463)"
       style="font-style:normal;font-variant:normal;font-weight:bold;font-stretch:normal;font-size:8px;line-height:125%;font-family:sans-serif;-inkscape-font-specification:'sans-serif, Bold';text-align:center;letter-spacing:0px;word-spacing:0px;writing-mode:lr-tb;text-anchor:middle;fill:#000000;fill-opacity:1;stroke:none;stroke-width:1px;stroke-linecap:butt;stroke-linejoin:miter;stroke-opacity:1"
       id="flowRoot4028-6-2-3"
       xml:space="preserve"><flowRegion
         id="flowRegion4030-7-6-6"><rect
           style="font-style:normal;font-variant:normal;font-weight:bold;font-stretch:normal;font-size:8px;line-height:125%;font-family:sans-serif;-inkscape-font-specification:'sans-serif, Bold';text-align:center;writing-mode:lr-tb;text-anchor:middle"
           y="-2.0367317"
           x="-53.589691"
           height="40.015308"
           width="135.11794"
           id="rect4032-3-2-3" /></flowRegion><flowPara
         id="flowPara4127-4">PLACEMENT LIBRE</flowPara></flowRoot>    <flowRoot
       transform="translate(524.31904,195.49939)"
       style="font-style:normal;font-variant:normal;font-weight:bold;font-stretch:normal;font-size:8px;line-height:125%;font-family:sans-serif;-inkscape-font-specification:'sans-serif, Bold';text-align:center;letter-spacing:0px;word-spacing:0px;writing-mode:lr-tb;text-anchor:middle;fill:#000000;fill-opacity:1;stroke:none;stroke-width:1px;stroke-linecap:butt;stroke-linejoin:miter;stroke-opacity:1"
       id="flowRoot4028-6-2-7"
       xml:space="preserve"><flowRegion
         id="flowRegion4030-7-6-4"><rect
           style="font-style:normal;font-variant:normal;font-weight:bold;font-stretch:normal;font-size:8px;line-height:125%;font-family:sans-serif;-inkscape-font-specification:'sans-serif, Bold';text-align:center;writing-mode:lr-tb;text-anchor:middle"
           y="-2.0367317"
           x="-53.589691"
           height="40.015308"
           width="135.11794"
           id="rect4032-3-2-1" /></flowRegion><flowPara
         id="flowPara4195">ENTREE </flowPara><flowPara
         id="flowPara4197">PRINCIPALE</flowPara></flowRoot>    <flowRoot
       transform="translate(253.79633,316.1663)"
       style="font-style:normal;font-variant:normal;font-weight:bold;font-stretch:normal;font-size:8px;line-height:125%;font-family:sans-serif;-inkscape-font-specification:'sans-serif, Bold';text-align:center;letter-spacing:0px;word-spacing:0px;writing-mode:lr-tb;text-anchor:middle;fill:#000000;fill-opacity:1;stroke:none;stroke-width:1px;stroke-linecap:butt;stroke-linejoin:miter;stroke-opacity:1"
       id="flowRoot4028-6-8-7"
       xml:space="preserve"><flowRegion
         id="flowRegion4030-7-55-4"><rect
           style="font-style:normal;font-variant:normal;font-weight:bold;font-stretch:normal;font-size:8px;line-height:125%;font-family:sans-serif;-inkscape-font-specification:'sans-serif, Bold';text-align:center;writing-mode:lr-tb;text-anchor:middle"
           y="-2.0373478"
           x="-26.542816"
           height="40.015308"
           width="135.11794"
           id="rect4032-3-7-9" /></flowRegion><flowPara
         id="flowPara4223">PRESSE</flowPara></flowRoot>    <rect
       y="241.39635"
       x="208.93414"
       height="1.0097561"
       width="169.89146"
       id="rect4246"
       style="fill:#7a7a7a;fill-opacity:1" />
    <rect
       y="201.42561"
       x="209.14574"
       height="1.0097561"
       width="169.89146"
       id="rect4246-8"
       style="fill:#7a7a7a;fill-opacity:1" />
    <rect
       transform="matrix(0,1,-1,0,0,0)"
       y="-294.50488"
       x="173.65427"
       height="1.0097561"
       width="67.891464"
       id="rect4246-80"
       style="fill:#7a7a7a;fill-opacity:1" />
    <path
       style="fill:none;fill-rule:evenodd;stroke:#000000;stroke-width:0.80000001px;stroke-linecap:butt;stroke-linejoin:miter;stroke-opacity:1"
       d="M 459.69012,80.174887 452.68976,98.1354"
       id="path4461"
       inkscape:connector-curvature="0"
       sodipodi:nodetypes="cc" />
    <path
       style="fill:none;fill-rule:evenodd;stroke:#000000;stroke-width:0.80000001px;stroke-linecap:butt;stroke-linejoin:miter;stroke-opacity:1"
       d="m 400.1,103.9 c 0,0 17.8,1.1 28.85,5.25"
       id="path4463"
       inkscape:connector-curvature="0" />
    <path
       style="fill:none;fill-rule:evenodd;stroke:#000000;stroke-width:0.80000001px;stroke-linecap:butt;stroke-linejoin:miter;stroke-opacity:1"
       d="m 400.85,39.550001 c 0,0 24,-0.45 44.8,8.15"
       id="path4465"
       inkscape:connector-curvature="0"
       sodipodi:nodetypes="cc" />
    <path
       style="fill:none;fill-rule:evenodd;stroke:#000000;stroke-width:0.80000001px;stroke-linecap:butt;stroke-linejoin:miter;stroke-opacity:1"
       d="m 415.00097,372.20999 c 0,0 18.73833,-0.98995 42.70925,-11.38442"
       id="path4467"
       inkscape:connector-curvature="0" />
    <path
       style="fill:none;fill-rule:evenodd;stroke:#000000;stroke-width:0.80000001px;stroke-linecap:butt;stroke-linejoin:miter;stroke-opacity:1"
       d="m 445.54798,294.07469 c 0,0 13.93,39.31513 19.8697,53.74012"
       id="path4469"
       inkscape:connector-curvature="0" />
    <path
       style="fill:none;fill-rule:evenodd;stroke:#000000;stroke-width:0.80000001px;stroke-linecap:butt;stroke-linejoin:miter;stroke-opacity:1"
       d="m 403.51048,308.32289 c 0,0 25.38514,-2.72237 38.50197,-12.12687"
       id="path4475"
       inkscape:connector-curvature="0"
       sodipodi:nodetypes="cc" />
    <path
       style="fill:none;fill-rule:evenodd;stroke:#000000;stroke-width:0.80000001px;stroke-linecap:butt;stroke-linejoin:miter;stroke-opacity:1"
       d="m 50.814632,111.92398 c 0,0 -43.4646991,62.26495 -25.309461,133.40231 7.627381,29.88623 26.177736,65.62065 62.346652,92.07294 12.532187,9.16547 27.130477,18.82369 44.526857,25.45669 11.30286,4.30963 23.73521,7.27983 37.96334,9.70762"
       id="path4477"
       inkscape:connector-curvature="0"
       sodipodi:nodetypes="csssc" />
    <path
       style="fill:none;fill-rule:evenodd;stroke:#000000;stroke-width:0.80000001px;stroke-linecap:butt;stroke-linejoin:miter;stroke-opacity:1"
       d="m 132.4,315.9 10.2,-21.4"
       id="path4479"
       inkscape:connector-curvature="0"
       sodipodi:nodetypes="cc" />
    <path
       style="fill:none;fill-rule:evenodd;stroke:#000000;stroke-width:0.80000001px;stroke-linecap:butt;stroke-linejoin:miter;stroke-opacity:1"
       d="m 181.92513,307.95858 c 0,0 -16.92513,-2.05858 -21.52513,-4.15858 -4.6,-2.1 -16.1,-7.2 -17.7,-9.3"
       id="path4481"
       inkscape:connector-curvature="0"
       sodipodi:nodetypes="csc" />
  </g>
</svg>
